<?xml version="1.0" standalone="yes"?>

<svg version="1.1" viewBox="0.0 0.0 749.0 171.0" fill="none" stroke="none" stroke-linecap="square" stroke-miterlimit="10" xmlns="http://www.w3.org/2000/svg" xmlns:xlink="http://www.w3.org/1999/xlink"><clipPath id="p.0"><path d="m0 0l749.0 0l0 171.0l-749.0 0l0 -171.0z" clip-rule="nonzero"></path></clipPath><g clip-path="url(#p.0)"><path fill="#000000" fill-opacity="0.0" d="m0 0l749.0 0l0 171.0l-749.0 0z" fill-rule="nonzero"></path><path fill="#000000" fill-opacity="0.0" d="m361.54474 83.888824c-11.689697 22.755013 -46.325317 61.947647 -25.152924 72.64421c20.768616 10.492569 30.435303 -40.678047 38.6597 -64.430984" fill-rule="evenodd"></path><path stroke="#d9d9d9" stroke-width="4.0" stroke-linejoin="round" stroke-linecap="butt" d="m361.54474 83.888824c-11.689697 22.755013 -46.325317 61.947647 -25.152924 72.64421c20.768616 10.492569 30.435303 -40.678047 38.6597 -64.430984" fill-rule="evenodd"></path><path fill="#f3f3f3" d="m347.2034 57.04987l0 0c0 -21.334717 17.986176 -38.62992 40.17325 -38.62992l0 0c10.654602 0 20.872803 4.069927 28.406769 11.314444c7.5339355 7.2445145 11.766449 17.070187 11.766449 27.31548l0 0c0 21.334713 -17.986176 38.629917 -40.173218 38.629917l0 0c-22.187073 0 -40.17325 -17.295204 -40.17325 -38.629917z" fill-rule="nonzero"></path><path stroke="#d9d9d9" stroke-width="8.0" stroke-linejoin="round" stroke-linecap="butt" d="m347.2034 57.04987l0 0c0 -21.334717 17.986176 -38.62992 40.17325 -38.62992l0 0c10.654602 0 20.872803 4.069927 28.406769 11.314444c7.5339355 7.2445145 11.766449 17.070187 11.766449 27.31548l0 0c0 21.334713 -17.986176 38.629917 -40.173218 38.629917l0 0c-22.187073 0 -40.17325 -17.295204 -40.17325 -38.629917z" fill-rule="nonzero"></path><path fill="#cfe2f3" d="m40.226536 71.65565l-11.558754 0l0 35.10794l-4.301941 0l0 -35.10794l-11.558753 0l0 -4.706009l27.419449 0l0 4.706009zm29.092426 35.10794l-4.3019485 0l0 -19.492523l-16.143143 0l0 19.492523l-4.301941 0l0 -39.81395l4.301941 0l0 15.61541l16.143143 0l0 -15.61541l4.3019485 0l0 39.81395zm35.458427 0l-5.5838394 0l-10.82003 -15.829323l-6.0618286 0l0 15.829323l-4.301941 0l0 -39.81395l9.06015 0q2.9331436 0 4.8885727 0.4723816q1.9554214 0.46347046 3.5197678 1.6667099q1.7598877 1.363678 2.7448425 3.440384q0.9921951 2.0677948 0.9921951 5.2497025q0 4.3049316 -1.7598801 7.210541q-1.7598877 2.896698 -4.8451157 4.367325l12.167107 17.406906zm-10.059593 -28.610428q0 -1.7112808 -0.49247742 -3.0303879q-0.48523712 -1.3280258 -1.615036 -2.2371445q-0.93426514 -0.77542114 -2.216156 -1.0784607q-1.2818909 -0.31195068 -3.02005 -0.31195068l-5.0623856 0l0 15.027161l4.345398 0q2.0423355 0 3.5632248 -0.43672943q1.5208893 -0.4456482 2.5855103 -1.6488876q0.97771454 -1.1230316 1.4412231 -2.5758362q0.4707489 -1.4617157 0.4707489 -3.7077637zm38.34812 -6.6312027q1.9771576 2.673874 3.0272827 6.5509872q1.0573883 3.8771133 1.0573883 8.797035q0 4.919922 -1.0791168 8.814865q-1.0718536 3.8860245 -3.0055542 6.479683q-1.9988861 2.7006073 -4.729248 4.0642853q-2.723114 1.3636703 -6.2211533 1.3636703q-3.4111328 0 -6.2066727 -1.3904114q-2.7882996 -1.3904114 -4.7437286 -4.0375443q-1.9554214 -2.6471329 -3.0128021 -6.497513q-1.0501404 -3.8503723 -1.0501404 -8.797035q0 -4.8664474 1.0428925 -8.725731q1.0429001 -3.8682022 3.0417786 -6.6222916q1.9119797 -2.6203918 4.7437286 -4.010811q2.8389893 -1.3904114 6.184944 -1.3904114q3.4763184 0 6.242882 1.4082413q2.773819 1.3993225 4.7075195 3.992981zm-0.39109802 15.348022q0 -7.7542267 -2.8244934 -11.961121q-2.8245163 -4.215805 -7.7130814 -4.215805q-4.9320297 0 -7.7492905 4.215805q-2.8100204 4.206894 -2.8100204 11.961121q0 7.834442 2.867958 11.996773q2.867958 4.153412 7.691353 4.153412q4.823387 0 7.676857 -4.153412q2.8607178 -4.1623306 2.8607178 -11.996773zm35.653976 3.9038544q0 4.3316727 -0.77493286 7.5581436q-0.76768494 3.2175598 -2.5275726 5.356659q-1.6729736 2.0321426 -3.910843 2.9679947q-2.2378845 0.93585205 -5.2144775 0.93585205q-3.0417786 0 -5.3013916 -0.9893265q-2.2595978 -0.9893341 -3.8022156 -2.9145203q-1.7598877 -2.1925812 -2.5348206 -5.2942657q-0.76768494 -3.1016922 -0.76768494 -7.620537l0 -23.824196l4.301941 0l0 24.091583q0 3.235382 0.35487366 5.107094q0.36212158 1.8717117 1.2094727 3.3958206q0.95599365 1.7380142 2.5927582 2.6203918q1.6439972 0.8823776 3.9470673 0.8823776q2.3247833 0 3.9543 -0.86455536q1.6295319 -0.87345886 2.6072388 -2.638214q0.8473511 -1.5241089 1.2022247 -3.4849472q0.36212158 -1.9697571 0.36212158 -4.8842773l0 -24.225273l4.301941 0l0 23.824196zm35.19771 13.048492q-2.6506958 1.4973679 -5.793869 2.6114807q-3.1359253 1.1052017 -6.0690613 1.1052017q-3.780487 0 -6.930908 -1.2834549q-3.150406 -1.2834625 -5.366562 -3.85038q-2.2378845 -2.5936508 -3.4545898 -6.479683q-1.2167053 -3.8949356 -1.2167053 -9.108986q0 -9.545723 4.5264435 -15.062813q4.5337067 -5.526001 12.442322 -5.526001q2.7593231 0 5.6345367 0.81998444q2.882431 0.8110733 6.206665 2.7630005l0 6.2836l-0.39108276 0q-0.6735382 -0.64173126 -1.9554291 -1.6845398q-1.2818909 -1.0428085 -2.5203247 -1.7380142q-1.4991608 -0.8289032 -3.4039001 -1.3725891q-1.8974915 -0.55259705 -4.309189 -0.55259705q-5.431732 0 -8.596634 4.2960205q-3.1576538 4.2871017 -3.1576538 11.61351q0 7.7274933 3.3025055 12.023514q3.3024902 4.2871094 8.994965 4.2871094q2.085785 0 4.157089 -0.50803375q2.0785522 -0.5080414 3.6428986 -1.3102036l0 -9.759628l-8.669067 0l0 -4.6525345l12.927551 0l0 17.086037zm32.264557 2.9412613l-4.301941 0l0 -19.492523l-16.143143 0l0 19.492523l-4.301941 0l0 -39.81395l4.301941 0l0 15.61541l16.143143 0l0 -15.61541l4.301941 0l0 39.81395zm47.40828 -35.10794l-11.558746 0l0 35.10794l-4.301941 0l0 -35.10794l-11.558762 0l0 -4.706009l27.419449 0l0 4.706009zm29.092407 35.10794l-4.301941 0l0 -19.492523l-16.143127 0l0 19.492523l-4.301941 0l0 -39.81395l4.301941 0l0 15.61541l16.143127 0l0 -15.61541l4.301941 0l0 39.81395zm30.004974 0l-21.314178 0l0 -39.81395l21.314178 0l0 4.706009l-17.012238 0l0 10.909401l17.012238 0l0 4.7060165l-17.012238 0l0 14.786507l17.012238 0l0 4.7060165zm42.932495 0l-20.466797 0l0 -39.81395l4.301941 0l0 35.107933l16.164856 0l0 4.7060165zm28.418884 -35.24163q1.9771729 2.673874 3.0273132 6.5509872q1.057373 3.8771133 1.057373 8.797035q0 4.919922 -1.0791016 8.814865q-1.0718689 3.8860245 -3.0055847 6.479683q-1.9988708 2.7006073 -4.7292175 4.0642853q-2.723114 1.3636703 -6.221161 1.3636703q-3.4111328 0 -6.2066956 -1.3904114q-2.788269 -1.3904114 -4.7437134 -4.0375443q-1.9554138 -2.6471329 -3.0128174 -6.497513q-1.0501099 -3.8503723 -1.0501099 -8.797035q0 -4.8664474 1.0428772 -8.725731q1.0429077 -3.8682022 3.0417786 -6.6222916q1.9119873 -2.6203918 4.7437134 -4.010811q2.8389893 -1.3904114 6.184967 -1.3904114q3.4763184 0 6.2428894 1.4082413q2.7738037 1.3993225 4.707489 3.992981zm-0.39108276 15.348022q0 -7.7542267 -2.8244934 -11.961121q-2.824524 -4.215805 -7.7130737 -4.215805q-4.9320374 0 -7.749298 4.215805q-2.810028 4.206894 -2.810028 11.961121q0 7.834442 2.867981 11.996773q2.8679504 4.153412 7.691345 4.153412q4.8233643 0 7.6768494 -4.153412q2.8607178 -4.1623306 2.8607178 -11.996773zm35.414978 -15.348022q1.9771729 2.673874 3.0272827 6.5509872q1.0574036 3.8771133 1.0574036 8.797035q0 4.919922 -1.0791016 8.814865q-1.0718689 3.8860245 -3.0055847 6.479683q-1.9988708 2.7006073 -4.729248 4.0642853q-2.723114 1.3636703 -6.2211304 1.3636703q-3.4111633 0 -6.2066956 -1.3904114q-2.7882996 -1.3904114 -4.7437134 -4.0375443q-1.9554443 -2.6471329 -3.0128174 -6.497513q-1.0501404 -3.8503723 -1.0501404 -8.797035q0 -4.8664474 1.0429077 -8.725731q1.0428772 -3.8682022 3.0417786 -6.6222916q1.9119568 -2.6203918 4.7437134 -4.010811q2.8389893 -1.3904114 6.184967 -1.3904114q3.4762878 0 6.242859 1.4082413q2.7738342 1.3993225 4.7075195 3.992981zm-0.39108276 15.348022q0 -7.7542267 -2.8244934 -11.961121q-2.824524 -4.215805 -7.7131042 -4.215805q-4.932007 0 -7.7492676 4.215805q-2.810028 4.206894 -2.810028 11.961121q0 7.834442 2.8679504 11.996773q2.867981 4.153412 7.691345 4.153412q4.823395 0 7.67688 -4.153412q2.8607178 -4.1623306 2.8607178 -11.996773zm37.305237 19.893608l-5.583832 0l-12.797211 -17.727768l-3.2155762 4.224716l0 13.503052l-4.301941 0l0 -39.81395l4.301941 0l0 20.775978l15.708588 -20.775978l5.2144775 0l-14.448425 18.717102l15.121979 21.096848zm16.230042 0l-12.775452 0l0 -4.0642853l4.2367554 0l0 -31.685379l-4.2367554 0l0 -4.0642853l12.775452 0l0 4.0642853l-4.2367554 0l0 31.685379l4.2367554 0l0 4.0642853zm32.003815 0l-5.323059 0l-15.339294 -35.615974l0 35.615974l-4.01947 0l0 -39.81395l6.670166 0l13.9921875 32.514275l0 -32.514275l4.01947 0l0 39.81395zm35.588806 -2.9412613q-2.6506958 1.4973679 -5.7938843 2.6114807q-3.1359253 1.1052017 -6.069031 1.1052017q-3.7805176 0 -6.930908 -1.2834549q-3.1503906 -1.2834625 -5.366577 -3.85038q-2.237854 -2.5936508 -3.4545898 -6.479683q-1.2166748 -3.8949356 -1.2166748 -9.108986q0 -9.545723 4.526428 -15.062813q4.5336914 -5.526001 12.442322 -5.526001q2.7593384 0 5.6345215 0.81998444q2.8824463 0.8110733 6.206665 2.7630005l0 6.2836l-0.39105225 0q-0.673584 -0.64173126 -1.9554443 -1.6845398q-1.2819214 -1.0428085 -2.5203247 -1.7380142q-1.4991455 -0.8289032 -3.4039307 -1.3725891q-1.8974609 -0.55259705 -4.309143 -0.55259705q-5.4317627 0 -8.59668 4.2960205q-3.1576538 4.2871017 -3.1576538 11.61351q0 7.7274933 3.3025513 12.023514q3.3024902 4.2871094 8.994934 4.2871094q2.0858154 0 4.1571045 -0.50803375q2.0785522 -0.5080414 3.6428833 -1.3102036l0 -9.759628l-8.669067 0l0 -4.6525345l12.927551 0l0 17.086037zm50.145874 0q-2.6506958 1.4973679 -5.7938843 2.6114807q-3.1359253 1.1052017 -6.069031 1.1052017q-3.7805176 0 -6.930908 -1.2834549q-3.1504517 -1.2834625 -5.366577 -3.85038q-2.237854 -2.5936508 -3.4545898 -6.479683q-1.2167358 -3.8949356 -1.2167358 -9.108986q0 -9.545723 4.5264893 -15.062813q4.5336914 -5.526001 12.442322 -5.526001q2.7593384 0 5.6345215 0.81998444q2.8824463 0.8110733 6.206665 2.7630005l0 6.2836l-0.39111328 0q-0.67352295 -0.64173126 -1.9553833 -1.6845398q-1.2819214 -1.0428085 -2.5203247 -1.7380142q-1.4992065 -0.8289032 -3.4039307 -1.3725891q-1.8974609 -0.55259705 -4.309143 -0.55259705q-5.4317627 0 -8.59668 4.2960205q-3.1576538 4.2871017 -3.1576538 11.61351q0 7.7274933 3.3024902 12.023514q3.3025513 4.2871094 8.994995 4.2871094q2.0858154 0 4.1571045 -0.50803375q2.0785522 -0.5080414 3.6428833 -1.3102036l0 -9.759628l-8.669067 0l0 -4.6525345l12.927551 0l0 17.086037zm27.984375 2.9412613l-20.466858 0l0 -39.81395l4.301941 0l0 35.107933l16.164917 0l0 4.7060165zm29.809387 0l-4.5844116 0l-3.1721191 -11.096573l-13.9921875 0l-3.1721191 11.096573l-4.3671265 0l11.776001 -39.81395l5.735962 0l11.776001 39.81395zm-9.081848 -15.642151l-5.6707764 -19.546005l-5.692444 19.546005l11.36322 0zm37.500732 4.2781906q0 2.326271 -0.8835449 4.59906q-0.8763428 2.2727966 -2.4624023 3.85038q-1.7381592 1.7112732 -4.055725 2.673874q-2.3103027 0.9625931 -5.569336 0.9625931q-3.4980469 0 -6.293579 -0.8021622q-2.788269 -0.8021622 -5.6779785 -2.3797455l0 -6.6312027l0.30419922 0q2.4551392 2.5134354 5.6707153 3.8771133q3.2155762 1.3636703 6.0401 1.3636703q3.9977417 0 6.2211304 -1.8449707q2.2306519 -1.8449707 2.2306519 -4.919922q0 -2.6471329 -1.057373 -3.9038544q-1.0501099 -1.2567215 -3.2011108 -1.9519272q-1.6295166 -0.5347748 -3.5342407 -0.8823776q-1.897522 -0.34760284 -4.0267334 -0.8823776q-4.301941 -1.123024 -6.380493 -3.83255q-2.071289 -2.7184372 -2.071289 -7.0768433q0 -5.000145 3.4328613 -8.190964q3.4328613 -3.19973 8.712524 -3.19973q3.4111328 0 6.257324 0.8021622q2.8462524 0.8021622 5.0407104 1.9786606l0 6.256859l-0.30419922 0q-1.8468018 -1.9251862 -4.859619 -3.1908188q-3.0055542 -1.2745438 -6.155945 -1.2745438q-3.4545898 0 -5.5548706 1.7647552q-2.0930176 1.7647552 -2.0930176 4.5455856q0 2.4866943 1.0428467 3.9038467q1.0429077 1.4171524 3.671875 2.1658401q1.3905029 0.37434387 3.9542847 0.90911865q2.5638428 0.53476715 4.345398 1.096283q3.6066895 1.176506 5.4317627 3.5562515q1.8250732 2.3797455 1.8250732 6.657936zm30.417786 0q0 2.326271 -0.88360596 4.59906q-0.87628174 2.2727966 -2.4623413 3.85038q-1.7381592 1.7112732 -4.055725 2.673874q-2.3103027 0.9625931 -5.569336 0.9625931q-3.4980469 0 -6.293579 -0.8021622q-2.78833 -0.8021622 -5.6779785 -2.3797455l0 -6.6312027l0.30413818 0q2.4551392 2.5134354 5.6707764 3.8771133q3.2155762 1.3636703 6.0401 1.3636703q3.9977417 0 6.2211304 -1.8449707q2.2306519 -1.8449707 2.2306519 -4.919922q0 -2.6471329 -1.057373 -3.9038544q-1.0501709 -1.2567215 -3.2011108 -1.9519272q-1.6295166 -0.5347748 -3.5342407 -0.8823776q-1.897522 -0.34760284 -4.0267334 -0.8823776q-4.301941 -1.123024 -6.380493 -3.83255q-2.07135 -2.7184372 -2.07135 -7.0768433q0 -5.000145 3.4328613 -8.190964q3.4329224 -3.19973 8.712524 -3.19973q3.4111328 0 6.2573853 0.8021622q2.8462524 0.8021622 5.0406494 1.9786606l0 6.256859l-0.30413818 0q-1.8468018 -1.9251862 -4.859619 -3.1908188q-3.0055542 -1.2745438 -6.156006 -1.2745438q-3.4545898 0 -5.5548096 1.7647552q-2.0930786 1.7647552 -2.0930786 4.5455856q0 2.4866943 1.0429077 3.9038467q1.0429077 1.4171524 3.671875 2.1658401q1.3905029 0.37434387 3.9542847 0.90911865q2.5637817 0.53476715 4.345398 1.096283q3.6066895 1.176506 5.4317627 3.5562515q1.8250732 2.3797455 1.8250732 6.657936z" fill-rule="nonzero"></path><path stroke="#c9daf8" stroke-width="2.0" stroke-linejoin="round" stroke-linecap="butt" d="m40.226536 71.65565l-11.558754 0l0 35.10794l-4.301941 0l0 -35.10794l-11.558753 0l0 -4.706009l27.419449 0l0 4.706009zm29.092426 35.10794l-4.3019485 0l0 -19.492523l-16.143143 0l0 19.492523l-4.301941 0l0 -39.81395l4.301941 0l0 15.61541l16.143143 0l0 -15.61541l4.3019485 0l0 39.81395zm35.458427 0l-5.5838394 0l-10.82003 -15.829323l-6.0618286 0l0 15.829323l-4.301941 0l0 -39.81395l9.06015 0q2.9331436 0 4.8885727 0.4723816q1.9554214 0.46347046 3.5197678 1.6667099q1.7598877 1.363678 2.7448425 3.440384q0.9921951 2.0677948 0.9921951 5.2497025q0 4.3049316 -1.7598801 7.210541q-1.7598877 2.896698 -4.8451157 4.367325l12.167107 17.406906zm-10.059593 -28.610428q0 -1.7112808 -0.49247742 -3.0303879q-0.48523712 -1.3280258 -1.615036 -2.2371445q-0.93426514 -0.77542114 -2.216156 -1.0784607q-1.2818909 -0.31195068 -3.02005 -0.31195068l-5.0623856 0l0 15.027161l4.345398 0q2.0423355 0 3.5632248 -0.43672943q1.5208893 -0.4456482 2.5855103 -1.6488876q0.97771454 -1.1230316 1.4412231 -2.5758362q0.4707489 -1.4617157 0.4707489 -3.7077637zm38.34812 -6.6312027q1.9771576 2.673874 3.0272827 6.5509872q1.0573883 3.8771133 1.0573883 8.797035q0 4.919922 -1.0791168 8.814865q-1.0718536 3.8860245 -3.0055542 6.479683q-1.9988861 2.7006073 -4.729248 4.0642853q-2.723114 1.3636703 -6.2211533 1.3636703q-3.4111328 0 -6.2066727 -1.3904114q-2.7882996 -1.3904114 -4.7437286 -4.0375443q-1.9554214 -2.6471329 -3.0128021 -6.497513q-1.0501404 -3.8503723 -1.0501404 -8.797035q0 -4.8664474 1.0428925 -8.725731q1.0429001 -3.8682022 3.0417786 -6.6222916q1.9119797 -2.6203918 4.7437286 -4.010811q2.8389893 -1.3904114 6.184944 -1.3904114q3.4763184 0 6.242882 1.4082413q2.773819 1.3993225 4.7075195 3.992981zm-0.39109802 15.348022q0 -7.7542267 -2.8244934 -11.961121q-2.8245163 -4.215805 -7.7130814 -4.215805q-4.9320297 0 -7.7492905 4.215805q-2.8100204 4.206894 -2.8100204 11.961121q0 7.834442 2.867958 11.996773q2.867958 4.153412 7.691353 4.153412q4.823387 0 7.676857 -4.153412q2.8607178 -4.1623306 2.8607178 -11.996773zm35.653976 3.9038544q0 4.3316727 -0.77493286 7.5581436q-0.76768494 3.2175598 -2.5275726 5.356659q-1.6729736 2.0321426 -3.910843 2.9679947q-2.2378845 0.93585205 -5.2144775 0.93585205q-3.0417786 0 -5.3013916 -0.9893265q-2.2595978 -0.9893341 -3.8022156 -2.9145203q-1.7598877 -2.1925812 -2.5348206 -5.2942657q-0.76768494 -3.1016922 -0.76768494 -7.620537l0 -23.824196l4.301941 0l0 24.091583q0 3.235382 0.35487366 5.107094q0.36212158 1.8717117 1.2094727 3.3958206q0.95599365 1.7380142 2.5927582 2.6203918q1.6439972 0.8823776 3.9470673 0.8823776q2.3247833 0 3.9543 -0.86455536q1.6295319 -0.87345886 2.6072388 -2.638214q0.8473511 -1.5241089 1.2022247 -3.4849472q0.36212158 -1.9697571 0.36212158 -4.8842773l0 -24.225273l4.301941 0l0 23.824196zm35.19771 13.048492q-2.6506958 1.4973679 -5.793869 2.6114807q-3.1359253 1.1052017 -6.0690613 1.1052017q-3.780487 0 -6.930908 -1.2834549q-3.150406 -1.2834625 -5.366562 -3.85038q-2.2378845 -2.5936508 -3.4545898 -6.479683q-1.2167053 -3.8949356 -1.2167053 -9.108986q0 -9.545723 4.5264435 -15.062813q4.5337067 -5.526001 12.442322 -5.526001q2.7593231 0 5.6345367 0.81998444q2.882431 0.8110733 6.206665 2.7630005l0 6.2836l-0.39108276 0q-0.6735382 -0.64173126 -1.9554291 -1.6845398q-1.2818909 -1.0428085 -2.5203247 -1.7380142q-1.4991608 -0.8289032 -3.4039001 -1.3725891q-1.8974915 -0.55259705 -4.309189 -0.55259705q-5.431732 0 -8.596634 4.2960205q-3.1576538 4.2871017 -3.1576538 11.61351q0 7.7274933 3.3025055 12.023514q3.3024902 4.2871094 8.994965 4.2871094q2.085785 0 4.157089 -0.50803375q2.0785522 -0.5080414 3.6428986 -1.3102036l0 -9.759628l-8.669067 0l0 -4.6525345l12.927551 0l0 17.086037zm32.264557 2.9412613l-4.301941 0l0 -19.492523l-16.143143 0l0 19.492523l-4.301941 0l0 -39.81395l4.301941 0l0 15.61541l16.143143 0l0 -15.61541l4.301941 0l0 39.81395zm47.40828 -35.10794l-11.558746 0l0 35.10794l-4.301941 0l0 -35.10794l-11.558762 0l0 -4.706009l27.419449 0l0 4.706009zm29.092407 35.10794l-4.301941 0l0 -19.492523l-16.143127 0l0 19.492523l-4.301941 0l0 -39.81395l4.301941 0l0 15.61541l16.143127 0l0 -15.61541l4.301941 0l0 39.81395zm30.004974 0l-21.314178 0l0 -39.81395l21.314178 0l0 4.706009l-17.012238 0l0 10.909401l17.012238 0l0 4.7060165l-17.012238 0l0 14.786507l17.012238 0l0 4.7060165zm42.932495 0l-20.466797 0l0 -39.81395l4.301941 0l0 35.107933l16.164856 0l0 4.7060165zm28.418884 -35.24163q1.9771729 2.673874 3.0273132 6.5509872q1.057373 3.8771133 1.057373 8.797035q0 4.919922 -1.0791016 8.814865q-1.0718689 3.8860245 -3.0055847 6.479683q-1.9988708 2.7006073 -4.7292175 4.0642853q-2.723114 1.3636703 -6.221161 1.3636703q-3.4111328 0 -6.2066956 -1.3904114q-2.788269 -1.3904114 -4.7437134 -4.0375443q-1.9554138 -2.6471329 -3.0128174 -6.497513q-1.0501099 -3.8503723 -1.0501099 -8.797035q0 -4.8664474 1.0428772 -8.725731q1.0429077 -3.8682022 3.0417786 -6.6222916q1.9119873 -2.6203918 4.7437134 -4.010811q2.8389893 -1.3904114 6.184967 -1.3904114q3.4763184 0 6.2428894 1.4082413q2.7738037 1.3993225 4.707489 3.992981zm-0.39108276 15.348022q0 -7.7542267 -2.8244934 -11.961121q-2.824524 -4.215805 -7.7130737 -4.215805q-4.9320374 0 -7.749298 4.215805q-2.810028 4.206894 -2.810028 11.961121q0 7.834442 2.867981 11.996773q2.8679504 4.153412 7.691345 4.153412q4.8233643 0 7.6768494 -4.153412q2.8607178 -4.1623306 2.8607178 -11.996773zm35.414978 -15.348022q1.9771729 2.673874 3.0272827 6.5509872q1.0574036 3.8771133 1.0574036 8.797035q0 4.919922 -1.0791016 8.814865q-1.0718689 3.8860245 -3.0055847 6.479683q-1.9988708 2.7006073 -4.729248 4.0642853q-2.723114 1.3636703 -6.2211304 1.3636703q-3.4111633 0 -6.2066956 -1.3904114q-2.7882996 -1.3904114 -4.7437134 -4.0375443q-1.9554443 -2.6471329 -3.0128174 -6.497513q-1.0501404 -3.8503723 -1.0501404 -8.797035q0 -4.8664474 1.0429077 -8.725731q1.0428772 -3.8682022 3.0417786 -6.6222916q1.9119568 -2.6203918 4.7437134 -4.010811q2.8389893 -1.3904114 6.184967 -1.3904114q3.4762878 0 6.242859 1.4082413q2.7738342 1.3993225 4.7075195 3.992981zm-0.39108276 15.348022q0 -7.7542267 -2.8244934 -11.961121q-2.824524 -4.215805 -7.7131042 -4.215805q-4.932007 0 -7.7492676 4.215805q-2.810028 4.206894 -2.810028 11.961121q0 7.834442 2.8679504 11.996773q2.867981 4.153412 7.691345 4.153412q4.823395 0 7.67688 -4.153412q2.8607178 -4.1623306 2.8607178 -11.996773zm37.305237 19.893608l-5.583832 0l-12.797211 -17.727768l-3.2155762 4.224716l0 13.503052l-4.301941 0l0 -39.81395l4.301941 0l0 20.775978l15.708588 -20.775978l5.2144775 0l-14.448425 18.717102l15.121979 21.096848zm16.230042 0l-12.775452 0l0 -4.0642853l4.2367554 0l0 -31.685379l-4.2367554 0l0 -4.0642853l12.775452 0l0 4.0642853l-4.2367554 0l0 31.685379l4.2367554 0l0 4.0642853zm32.003815 0l-5.323059 0l-15.339294 -35.615974l0 35.615974l-4.01947 0l0 -39.81395l6.670166 0l13.9921875 32.514275l0 -32.514275l4.01947 0l0 39.81395zm35.588806 -2.9412613q-2.6506958 1.4973679 -5.7938843 2.6114807q-3.1359253 1.1052017 -6.069031 1.1052017q-3.7805176 0 -6.930908 -1.2834549q-3.1503906 -1.2834625 -5.366577 -3.85038q-2.237854 -2.5936508 -3.4545898 -6.479683q-1.2166748 -3.8949356 -1.2166748 -9.108986q0 -9.545723 4.526428 -15.062813q4.5336914 -5.526001 12.442322 -5.526001q2.7593384 0 5.6345215 0.81998444q2.8824463 0.8110733 6.206665 2.7630005l0 6.2836l-0.39105225 0q-0.673584 -0.64173126 -1.9554443 -1.6845398q-1.2819214 -1.0428085 -2.5203247 -1.7380142q-1.4991455 -0.8289032 -3.4039307 -1.3725891q-1.8974609 -0.55259705 -4.309143 -0.55259705q-5.4317627 0 -8.59668 4.2960205q-3.1576538 4.2871017 -3.1576538 11.61351q0 7.7274933 3.3025513 12.023514q3.3024902 4.2871094 8.994934 4.2871094q2.0858154 0 4.1571045 -0.50803375q2.0785522 -0.5080414 3.6428833 -1.3102036l0 -9.759628l-8.669067 0l0 -4.6525345l12.927551 0l0 17.086037zm50.145874 0q-2.6506958 1.4973679 -5.7938843 2.6114807q-3.1359253 1.1052017 -6.069031 1.1052017q-3.7805176 0 -6.930908 -1.2834549q-3.1504517 -1.2834625 -5.366577 -3.85038q-2.237854 -2.5936508 -3.4545898 -6.479683q-1.2167358 -3.8949356 -1.2167358 -9.108986q0 -9.545723 4.5264893 -15.062813q4.5336914 -5.526001 12.442322 -5.526001q2.7593384 0 5.6345215 0.81998444q2.8824463 0.8110733 6.206665 2.7630005l0 6.2836l-0.39111328 0q-0.67352295 -0.64173126 -1.9553833 -1.6845398q-1.2819214 -1.0428085 -2.5203247 -1.7380142q-1.4992065 -0.8289032 -3.4039307 -1.3725891q-1.8974609 -0.55259705 -4.309143 -0.55259705q-5.4317627 0 -8.59668 4.2960205q-3.1576538 4.2871017 -3.1576538 11.61351q0 7.7274933 3.3024902 12.023514q3.3025513 4.2871094 8.994995 4.2871094q2.0858154 0 4.1571045 -0.50803375q2.0785522 -0.5080414 3.6428833 -1.3102036l0 -9.759628l-8.669067 0l0 -4.6525345l12.927551 0l0 17.086037zm27.984375 2.9412613l-20.466858 0l0 -39.81395l4.301941 0l0 35.107933l16.164917 0l0 4.7060165zm29.809387 0l-4.5844116 0l-3.1721191 -11.096573l-13.9921875 0l-3.1721191 11.096573l-4.3671265 0l11.776001 -39.81395l5.735962 0l11.776001 39.81395zm-9.081848 -15.642151l-5.6707764 -19.546005l-5.692444 19.546005l11.36322 0zm37.500732 4.2781906q0 2.326271 -0.8835449 4.59906q-0.8763428 2.2727966 -2.4624023 3.85038q-1.7381592 1.7112732 -4.055725 2.673874q-2.3103027 0.9625931 -5.569336 0.9625931q-3.4980469 0 -6.293579 -0.8021622q-2.788269 -0.8021622 -5.6779785 -2.3797455l0 -6.6312027l0.30419922 0q2.4551392 2.5134354 5.6707153 3.8771133q3.2155762 1.3636703 6.0401 1.3636703q3.9977417 0 6.2211304 -1.8449707q2.2306519 -1.8449707 2.2306519 -4.919922q0 -2.6471329 -1.057373 -3.9038544q-1.0501099 -1.2567215 -3.2011108 -1.9519272q-1.6295166 -0.5347748 -3.5342407 -0.8823776q-1.897522 -0.34760284 -4.0267334 -0.8823776q-4.301941 -1.123024 -6.380493 -3.83255q-2.071289 -2.7184372 -2.071289 -7.0768433q0 -5.000145 3.4328613 -8.190964q3.4328613 -3.19973 8.712524 -3.19973q3.4111328 0 6.257324 0.8021622q2.8462524 0.8021622 5.0407104 1.9786606l0 6.256859l-0.30419922 0q-1.8468018 -1.9251862 -4.859619 -3.1908188q-3.0055542 -1.2745438 -6.155945 -1.2745438q-3.4545898 0 -5.5548706 1.7647552q-2.0930176 1.7647552 -2.0930176 4.5455856q0 2.4866943 1.0428467 3.9038467q1.0429077 1.4171524 3.671875 2.1658401q1.3905029 0.37434387 3.9542847 0.90911865q2.5638428 0.53476715 4.345398 1.096283q3.6066895 1.176506 5.4317627 3.5562515q1.8250732 2.3797455 1.8250732 6.657936zm30.417786 0q0 2.326271 -0.88360596 4.59906q-0.87628174 2.2727966 -2.4623413 3.85038q-1.7381592 1.7112732 -4.055725 2.673874q-2.3103027 0.9625931 -5.569336 0.9625931q-3.4980469 0 -6.293579 -0.8021622q-2.78833 -0.8021622 -5.6779785 -2.3797455l0 -6.6312027l0.30413818 0q2.4551392 2.5134354 5.6707764 3.8771133q3.2155762 1.3636703 6.0401 1.3636703q3.9977417 0 6.2211304 -1.8449707q2.2306519 -1.8449707 2.2306519 -4.919922q0 -2.6471329 -1.057373 -3.9038544q-1.0501709 -1.2567215 -3.2011108 -1.9519272q-1.6295166 -0.5347748 -3.5342407 -0.8823776q-1.897522 -0.34760284 -4.0267334 -0.8823776q-4.301941 -1.123024 -6.380493 -3.83255q-2.07135 -2.7184372 -2.07135 -7.0768433q0 -5.000145 3.4328613 -8.190964q3.4329224 -3.19973 8.712524 -3.19973q3.4111328 0 6.2573853 0.8021622q2.8462524 0.8021622 5.0406494 1.9786606l0 6.256859l-0.30413818 0q-1.8468018 -1.9251862 -4.859619 -3.1908188q-3.0055542 -1.2745438 -6.156006 -1.2745438q-3.4545898 0 -5.5548096 1.7647552q-2.0930786 1.7647552 -2.0930786 4.5455856q0 2.4866943 1.0429077 3.9038467q1.0429077 1.4171524 3.671875 2.1658401q1.3905029 0.37434387 3.9542847 0.90911865q2.5637817 0.53476715 4.345398 1.096283q3.6066895 1.176506 5.4317627 3.5562515q1.8250732 2.3797455 1.8250732 6.657936z" fill-rule="nonzero"></path><path fill="#ffffff" d="m362.75198 45.868767l11.748016 -10.740158l11.748016 0l-23.496033 21.480316z" fill-rule="nonzero"></path></g></svg>

